<?xml version="1.0" encoding="UTF-8"?>
<svg version="1.1" xmlns="http://www.w3.org/2000/svg" width="419" height="443">
<path d="M0 0 C0 28.71 0 57.42 0 87 C-7.78947368 80.32330827 -7.78947368 80.32330827 -10.75 77.25 C-14.30215175 73.4739027 -14.30215175 73.4739027 -19.05078125 71.6640625 C-24.53313548 71.5693759 -27.71794886 72.24015022 -32 76 C-34.59036348 79.41457004 -34.43108741 82.83282171 -34 87 C-30.8893918 92.52401111 -26.56440983 96.72592785 -22.09375 101.171875 C-20.95117737 102.31731781 -20.95117737 102.31731781 -19.78552246 103.48590088 C-18.18092421 105.09185526 -16.57381692 106.6953062 -14.96435547 108.29638672 C-12.50124244 110.74876297 -10.04901289 113.21165968 -7.59765625 115.67578125 C-6.03449529 117.23762109 -4.4707143 118.79884068 -2.90625 120.359375 C-1.80766663 121.46403107 -1.80766663 121.46403107 -0.68688965 122.59100342 C0.00062378 123.27221252 0.68813721 123.95342163 1.39648438 124.65527344 C1.99730835 125.25450623 2.59813232 125.85373901 3.21716309 126.47113037 C6.91690746 129.64384166 9.93466256 130.2440538 14.8046875 130.4609375 C21.47510901 129.06038636 26.56110997 122.74544095 31.171875 118.12890625 C32.31731781 116.98989113 32.31731781 116.98989113 33.48590088 115.8278656 C35.09193714 114.22755212 36.69538649 112.62463876 38.29638672 111.01928711 C40.74710276 108.56540099 43.21087094 106.12516472 45.67578125 103.68554688 C47.23778935 102.12581094 48.79901453 100.56529047 50.359375 99.00390625 C51.46403107 97.9130648 51.46403107 97.9130648 52.59100342 96.80018616 C53.27221252 96.11274826 53.95342163 95.42531036 54.65527344 94.71704102 C55.25450623 94.11843765 55.85373901 93.51983429 56.47113037 92.90309143 C58.65479791 90.18492705 59.8946596 87.42614689 60.15234375 83.9375 C59.57809283 78.75880075 58.14804804 76.42213963 54 73 C53.67 72.67 53.34 72.34 53 72 C51.07045668 71.72210436 51.07045668 71.72210436 48.8125 71.6875 C48.05582031 71.65011719 47.29914063 71.61273438 46.51953125 71.57421875 C40.47443663 72.59579288 36.25838489 77.49483638 32.1875 81.75 C30.47667526 83.52168411 28.75230444 85.26859187 27 87 C26.67 87 26.34 87 26 87 C26 58.29 26 29.58 26 0 C57.65314047 2.87755822 83.96618154 18.51352016 105 42 C108.39362106 46.07478672 111.28498587 50.45116054 114 55 C114.37995117 55.63244629 114.75990234 56.26489258 115.15136719 56.91650391 C123.46819007 71.02356333 129.38397068 86.61469005 131 103 C131.06558105 103.64727051 131.13116211 104.29454102 131.19873047 104.96142578 C132.62674867 119.94363112 131.45363908 134.08876156 127.8125 148.6875 C127.64089355 149.3983374 127.46928711 150.1091748 127.29248047 150.84155273 C125.87231155 156.1058903 123.72249366 160.90190676 121.39331055 165.81176758 C120.90406223 166.85115353 120.90406223 166.85115353 120.40493011 167.91153717 C119.60561292 169.60878891 118.80312589 171.30454719 118 173 C119.37063095 173.00546844 119.37063095 173.00546844 120.76895142 173.01104736 C129.3909597 173.04895395 138.01259076 173.10583707 146.63433266 173.18390274 C151.06662069 173.22336919 155.4987103 173.25556166 159.93115234 173.27099609 C164.21078712 173.28616831 168.48987637 173.32062344 172.76926804 173.36830902 C174.39983751 173.38311708 176.03048487 173.39104069 177.66112137 173.39188385 C179.94996167 173.39425712 182.23729873 173.42136245 184.52587891 173.45410156 C185.82715729 173.46298401 187.12843567 173.47186646 188.46914673 173.48101807 C192.60196661 174.08847997 194.76229096 175.40823462 198 178 C200.37474838 181.19362713 201.81415951 184.00442937 202 188 C201.02732649 192.34229245 199.70705553 195.31062086 196.5 198.4375 C192.56801257 200.89499214 189.63445889 201.12616585 185.08783245 201.13142776 C183.84547067 201.13526891 182.6031089 201.13911005 181.32309979 201.1430676 C179.9368913 201.14228731 178.55068286 201.14140852 177.16447449 201.14044189 C175.69773175 201.1430248 174.23098972 201.14603775 172.76424867 201.1494453 C168.7236466 201.15752723 164.68306227 201.15930553 160.64245307 201.16004276 C156.28856228 201.16189124 151.93468074 201.1694375 147.58079529 201.17617798 C138.05608171 201.18977008 128.53137235 201.19578732 119.00665069 201.20018864 C113.06183454 201.20294946 107.11702002 201.2071865 101.17220497 201.21169281 C84.71966116 201.22388639 68.26711866 201.23418568 51.81457043 201.2375679 C50.76121556 201.23778747 49.70786069 201.23800703 48.62258597 201.23823325 C47.56668154 201.23845153 46.51077712 201.23866981 45.42287558 201.2388947 C43.28313776 201.23933817 41.14339993 201.23978473 39.00366211 201.24023438 C37.94227362 201.2404558 36.88088513 201.24067723 35.78733335 201.24090537 C18.584131 201.24485446 1.38097099 201.26231145 -15.822215 201.2855939 C-33.47539436 201.30929295 -51.12855247 201.32176908 -68.781748 201.32293582 C-78.69704441 201.32385337 -88.61228567 201.32962583 -98.52756691 201.34775543 C-106.96972389 201.36313688 -115.41180868 201.36828845 -123.853977 201.36001733 C-128.16253751 201.35610394 -132.47095253 201.35707394 -136.77949524 201.37107468 C-140.72302604 201.38377231 -144.66630142 201.38265271 -148.60983165 201.37048396 C-150.03716338 201.36851977 -151.46451295 201.37163865 -152.89181957 201.38032833 C-154.83128653 201.39138941 -156.77083747 201.38215994 -158.71030903 201.3719368 C-160.32661747 201.37283243 -160.32661747 201.37283243 -161.97557861 201.37374616 C-166.74082911 200.78487515 -170.98196863 198.81225015 -174 195 C-175.64914271 190.05257186 -175.8248061 185.06201525 -173.875 180.1875 C-170.61012825 176.37848296 -167.4771684 174.21712137 -162.46914673 173.48101807 C-161.16786835 173.47213562 -159.86658997 173.46325317 -158.52587891 173.45410156 C-157.80323853 173.44376389 -157.08059814 173.43342621 -156.33605957 173.42277527 C-153.9659967 173.39346065 -151.59679202 173.39185059 -149.2265625 173.390625 C-147.57602318 173.37563559 -145.92549881 173.35890684 -144.2749939 173.34051514 C-139.94479668 173.29691445 -135.61480177 173.27685882 -131.28442383 173.26177979 C-126.86006748 173.24218232 -122.43592878 173.20021532 -118.01171875 173.16015625 C-109.3412029 173.08493308 -100.67077271 173.03459403 -92 173 C-92.4851004 171.97995377 -92.97020081 170.95990753 -93.47000122 169.90895081 C-94.1105448 168.55209373 -94.75090584 167.19515047 -95.39111328 165.83813477 C-95.71038284 165.16803627 -96.0296524 164.49793777 -96.3585968 163.80753326 C-98.79349228 158.63231817 -100.57746165 153.51405269 -101.875 147.9375 C-102.07351562 147.14923828 -102.27203125 146.36097656 -102.4765625 145.54882812 C-106.87724071 127.78257658 -107.32131706 105.61678452 -102 88 C-101.80664062 87.31647461 -101.61328125 86.63294922 -101.4140625 85.92871094 C-93.63595667 58.6693308 -76.61993519 32.88279041 -52 18 C-51.11570312 17.4328125 -50.23140625 16.865625 -49.3203125 16.28125 C-34.81802882 7.32048935 -17.27191602 0 0 0 Z " fill="#1E294E" transform="translate(200,112)"/>
<path d="M0 0 C0.9958688 -0.00226556 1.9917376 -0.00453111 3.01778424 -0.00686532 C6.35245432 -0.01319193 9.68708362 -0.01237682 13.02175903 -0.0115509 C15.41357475 -0.01454321 17.80538999 -0.0179459 20.19720459 -0.02172852 C26.01841782 -0.02964724 31.83961869 -0.03278283 37.66083704 -0.03334089 C42.39365524 -0.03381656 47.12647011 -0.03587382 51.85928726 -0.03904152 C65.28567169 -0.04784463 78.71204813 -0.05246138 92.13843547 -0.05171105 C93.22343454 -0.05165111 93.22343454 -0.05165111 94.33035278 -0.05158997 C95.05457129 -0.05154909 95.77878981 -0.0515082 96.52495433 -0.05146609 C108.26239419 -0.05105962 119.99980197 -0.06063026 131.73723255 -0.07472833 C143.79695576 -0.08909893 155.85666332 -0.09599815 167.91639531 -0.09513456 C174.68390008 -0.09480284 181.45137121 -0.0975387 188.21886826 -0.10831261 C194.58329134 -0.11798985 200.94764336 -0.11807527 207.31206894 -0.11079597 C209.64692285 -0.10974971 211.98178117 -0.11211549 214.3166275 -0.11815643 C217.50592775 -0.1258732 220.69498239 -0.12123347 223.88427734 -0.11352539 C224.80627328 -0.11866895 225.72826921 -0.12381252 226.67820442 -0.12911195 C239.25883885 -0.06200764 239.25883885 -0.06200764 243.90896606 3.57121277 C247.43467027 8.5900088 248.90232718 11.91939311 248.06912231 18.13371277 C245.7922885 22.60305321 243.62086239 25.07125583 239.06912231 27.13371277 C235.66789348 27.57460832 232.29114383 27.54262625 228.86540222 27.52139282 C227.82814119 27.52677836 226.79088016 27.5321639 225.72218698 27.53771263 C222.24143914 27.55203675 218.7610692 27.54487734 215.28030396 27.5377655 C212.7868672 27.54346672 210.29343306 27.55043001 207.80000305 27.55856323 C201.72728096 27.57466956 195.65470773 27.57658973 189.58197886 27.57135033 C184.64602106 27.56730879 179.71009384 27.56875199 174.7741375 27.57409859 C173.72033955 27.57522122 173.72033955 27.57522122 172.64525275 27.57636653 C171.2180568 27.57789801 169.79086085 27.57943636 168.36366492 27.5809815 C154.97991583 27.59470923 141.59622519 27.58926694 128.21247744 27.57779629 C115.96918946 27.56786351 103.72605259 27.5808048 91.48278791 27.60473048 C78.91006694 27.6291148 66.33741637 27.63873101 53.76467222 27.63207775 C46.70655036 27.62858405 39.64854473 27.6308275 32.59044075 27.64832878 C25.95430539 27.66457968 19.31841202 27.65987951 12.68226814 27.64102364 C10.24498552 27.63732847 7.80768163 27.64047304 5.37041855 27.65090942 C2.04655172 27.66405696 -1.2763491 27.65262614 -4.60017395 27.63491821 C-6.05129378 27.64932572 -6.05129378 27.64932572 -7.53172916 27.66402429 C-13.31573627 27.60050253 -16.49226106 26.92181813 -20.93087769 23.13371277 C-23.81690584 19.67047898 -24.46544916 16.64611192 -24.28634644 12.12590027 C-23.54051984 7.94599299 -21.02089742 5.18739851 -18.05587769 2.32121277 C-12.67431273 -0.68613236 -5.9919001 -0.01001565 0 0 Z " fill="#232E51" transform="translate(100.93087768554688,337.8662872314453)"/>
<path d="M0 0 C1.86318375 -0.01279495 1.86318375 -0.01279495 3.76400757 -0.02584839 C5.13784803 -0.02514939 6.51168839 -0.02422634 7.88552856 -0.02310181 C9.33449653 -0.02908714 10.7834613 -0.0358927 12.23242188 -0.04345703 C16.16636377 -0.0611238 20.10021865 -0.06581269 24.03419638 -0.0670886 C26.49264652 -0.06851038 28.95107455 -0.07278046 31.4095192 -0.07808304 C39.98812515 -0.09658552 48.56666895 -0.10475337 57.14529419 -0.10317993 C65.13879096 -0.10197845 73.13201775 -0.12308142 81.1254462 -0.15466726 C87.99096949 -0.18082837 94.8564046 -0.1915473 101.72197735 -0.19026911 C105.8212776 -0.18975943 109.92033792 -0.19544593 114.01958847 -0.21662521 C117.87581577 -0.236005 121.7315742 -0.23613421 125.58781815 -0.22159195 C127.00113358 -0.2195024 128.41447834 -0.22421358 129.82774353 -0.23631287 C143.03032858 -0.34200061 143.03032858 -0.34200061 147.94070435 4.26742554 C150.70125738 7.17388518 151.37199133 9.15367172 151.37820435 13.14242554 C151.21651502 17.9157757 150.26220089 20.68370558 146.94070435 24.26742554 C142.71339661 26.77421262 139.61039528 27.64317112 134.71682739 27.64837646 C133.48878387 27.65683594 132.26074036 27.66529541 130.9954834 27.67401123 C129.64779529 27.66817926 128.3001085 27.66203481 126.9524231 27.65560913 C125.52286377 27.65967745 124.09330758 27.66502079 122.66375732 27.67153931 C118.79185363 27.68518791 114.92019039 27.6799245 111.04828262 27.67040205 C106.9911765 27.66279269 102.9340906 27.66985461 98.87698364 27.67456055 C92.06452753 27.68001438 85.25216906 27.67283627 78.43972778 27.65853882 C70.57005455 27.64221298 62.70061451 27.64750176 54.83094692 27.66401803 C48.06728593 27.67764352 41.30369504 27.67954738 34.54002476 27.67170203 C30.50341025 27.66703134 26.46690527 27.66638398 22.43029785 27.67631149 C18.63482147 27.68499439 14.83964497 27.67893534 11.0442009 27.66162872 C9.6534716 27.65767091 8.26271695 27.65878586 6.87199783 27.66541672 C4.96953499 27.67364942 3.06701682 27.66148154 1.1645813 27.64837646 C-0.43041451 27.64667985 -0.43041451 27.64667985 -2.05763245 27.64494896 C-6.90995633 27.03466533 -10.13058312 25.26945748 -13.43429565 21.70492554 C-15.60838513 17.1058901 -16.00934502 13.26939487 -15.05929565 8.26742554 C-11.72282243 1.83185663 -6.8770301 0.02134381 0 0 Z " fill="#222D50" transform="translate(145.05929565429688,390.7325744628906)"/>
<path d="M0 0 C1.06734375 -0.00708984 2.1346875 -0.01417969 3.234375 -0.02148438 C9.86173729 0.03209505 14.1905944 0.8525462 19.75 4.625 C22.27191661 8.28177908 23.37757362 12.23962411 22.62890625 16.59765625 C21.11145606 21.18429947 19.18337932 23.82288792 15 26.4375 C10.17207263 28.04680912 5.24394272 27.70525272 0.1875 27.75 C-0.89337891 27.77900391 -1.97425781 27.80800781 -3.08789062 27.83789062 C-9.39246893 27.8882034 -13.24607835 27.73236866 -18 23.4375 C-20.75374623 20.17648473 -21.89487343 18.17338601 -22.5 13.9375 C-21.74330604 8.6406423 -19.53285655 5.81057997 -15.6015625 2.2890625 C-10.89083334 -0.74234565 -5.40044754 -0.10109533 0 0 Z " fill="#263154" transform="translate(379,215.5625)"/>
<path d="M0 0 C3.69736283 1.87208245 5.68709187 4.15343347 7.140625 8.0859375 C8.29286807 12.53738795 8.3305699 16.92470044 8.3125 21.5 C8.33666992 22.72396484 8.33666992 22.72396484 8.36132812 23.97265625 C8.36620647 30.05107776 7.51728072 34.8551619 3.60546875 39.7421875 C0.09669267 42.54534194 -2.48883016 44 -7 44 C-11.52779843 42.64960398 -14.98211491 40.852847 -17.97241211 37.1159668 C-20.30900986 32.30454064 -19.62194256 26.66162993 -19.5 21.4375 C-19.50257813 20.21869141 -19.50515625 18.99988281 -19.5078125 17.74414062 C-19.39798736 7.7335794 -19.39798736 7.7335794 -16 3 C-10.95421934 -1.41505808 -6.30155567 -1.54850515 0 0 Z " fill="#252F53" transform="translate(219,42)"/>
<path d="M0 0 C1.08087891 -0.02900391 2.16175781 -0.05800781 3.27539062 -0.08789062 C9.57996893 -0.1382034 13.43357835 0.01763134 18.1875 4.3125 C20.94124623 7.57351527 22.08237343 9.57661399 22.6875 13.8125 C21.93080604 19.1093577 19.72035655 21.93942003 15.7890625 25.4609375 C11.07833334 28.49234565 5.58794754 27.85109533 0.1875 27.75 C-0.87984375 27.75708984 -1.9471875 27.76417969 -3.046875 27.77148438 C-9.64513616 27.71814022 -14.3810694 27.15230464 -19.625 22.8125 C-22.66346403 18.97444017 -22.26935882 13.94635373 -21.8125 9.3125 C-20.18772535 5.57551831 -18.25628693 3.46486683 -14.8125 1.3125 C-9.98457263 -0.29680912 -5.05644272 0.04474728 0 0 Z " fill="#263154" transform="translate(46.8125,215.6875)"/>
<path d="M0 0 C5.30295743 4.39257847 11.09826247 9.39304988 12.8125 16.25 C13.08421603 21.68432066 11.48000906 25.24248924 8 29.375 C4.6247089 32.11742402 1.31496582 32.35512682 -2.95703125 32.26953125 C-9.43215507 31.41526061 -14.89969144 24.72828375 -19 20 C-21.54980961 15.80274847 -21.92009351 11.79417144 -21 7 C-18.83152008 3.036916 -16.10939901 0.61633278 -12.1875 -1.5625 C-7.61321624 -2.19034287 -4.21032778 -2.00779586 0 0 Z " fill="#253053" transform="translate(97,94)"/>
<path d="M0 0 C2.98089173 3.70353215 3.42660296 6.79954337 3.33203125 11.51953125 C2.4891239 17.90852467 -4.15892686 23.61150098 -8.9375 27.5625 C-13.1010308 29.55765883 -16.3102383 29.97564837 -20.9375 29.5625 C-25.04406241 27.74797242 -27.495777 25.31228889 -29.9375 21.5625 C-31.3217228 16.91546632 -31.03019917 13.92228994 -28.9375 9.5625 C-24.91210716 4.1917785 -19.93372583 -1.86004244 -13.5625 -4.375 C-8.1427259 -4.50404224 -4.20041038 -3.48544691 0 0 Z " fill="#253053" transform="translate(346.9375,96.4375)"/>
</svg>
